<svg width="25" height="25" viewBox="0 0 25 25" fill="none" xmlns="http://www.w3.org/2000/svg">
<g clip-path="url(#clip0)">
<path d="M21.2788 0.00546327L2.90381 0.0405307C1.353 0.0434903 0.0937183 1.30759 0.0966779 2.85839L0.131745 21.2333C0.134705 22.7842 1.39879 24.0434 2.94961 24.0405L21.3246 24.0054C22.8754 24.0025 24.1347 22.7384 24.1317 21.1875L24.0966 2.81259C24.0937 1.26178 22.8296 0.00250376 21.2788 0.00546327ZM22.2567 21.1911C22.2577 21.708 21.8379 22.1294 21.3211 22.1304L15.9772 22.1406L15.9626 14.5L18.8591 14.4945L19.3321 11.5873L15.9571 11.5938L15.9533 9.57814C15.9517 8.78244 16.5611 8.17074 17.3568 8.16922L19.2788 8.16555L19.2732 5.2593L17.3513 5.26297C14.9643 5.26752 13.0435 7.20479 13.0481 9.59185L13.0519 11.5993L10.2384 11.6047L10.2439 14.5109L13.0575 14.5055L13.072 22.1462L2.94603 22.1655C2.4291 22.1665 2.00773 21.7467 2.00674 21.2297L1.97167 2.85481C1.97069 2.33788 2.39045 1.91651 2.90738 1.91553L21.2824 1.88046C21.7992 1.87947 22.2207 2.29923 22.2216 2.81617L22.2567 21.1911Z" fill="#00A189"/>
</g>
<defs>
<clipPath id="clip0">
<rect width="24" height="24" fill="white" transform="translate(0.0913086 0.0458984) rotate(-0.10935)"/>
</clipPath>
</defs>
</svg>
