<svg width="25" height="25" viewBox="0 0 25 25" fill="none" xmlns="http://www.w3.org/2000/svg">
<g clip-path="url(#clip0)">
<path d="M16.5459 0.0144079L7.54589 0.0315846C3.40439 0.0394887 0.0523082 3.40439 0.0602123 7.54589L0.0773889 16.5459C0.0852932 20.6874 3.4502 24.0394 7.59169 24.0315L16.5917 24.0144C20.7332 24.0065 24.0852 20.6416 24.0773 16.5001L24.0602 7.50008C24.0523 3.35859 20.6874 0.00650372 16.5459 0.0144079ZM21.8273 16.5044C21.8329 19.3994 19.4824 21.7588 16.5874 21.7644L7.5874 21.7815C4.6924 21.7871 2.33291 19.4366 2.32738 16.5416L2.31021 7.54159C2.30468 4.6466 4.65518 2.28711 7.55018 2.28158L16.5502 2.2644C19.4452 2.25888 21.8046 4.60938 21.8102 7.50437L21.8273 16.5044Z" fill="#00A189"/>
<path d="M12.0576 6.02297C8.74411 6.0293 6.06274 8.72092 6.06907 12.0344C6.07539 15.348 8.76701 18.0293 12.0805 18.023C15.3941 18.0166 18.0754 15.3251 18.069 12.0115C18.0627 8.69802 15.3712 6.01665 12.0576 6.02297ZM12.0762 15.773C10.0092 15.7769 8.32301 14.0971 8.31906 12.0301C8.31512 9.96162 9.9949 8.27691 12.0619 8.27297C14.1289 8.26902 15.8151 9.94731 15.8191 12.0158C15.823 14.0828 14.1432 15.769 12.0762 15.773Z" fill="#00A189"/>
<path d="M18.5081 6.36017C18.9497 6.35932 19.3069 6.00069 19.3061 5.55914C19.3052 5.11759 18.9466 4.76033 18.505 4.76117C18.0635 4.76201 17.7062 5.12064 17.7071 5.56219C17.7079 6.00374 18.0666 6.36101 18.5081 6.36017Z" fill="#00A189"/>
</g>
<defs>
<clipPath id="clip0">
<rect width="24" height="24" fill="white" transform="translate(0.0458984 0.0458984) rotate(-0.10935)"/>
</clipPath>
</defs>
</svg>
