<svg width="22" height="22" viewBox="0 0 22 22" fill="none" xmlns="http://www.w3.org/2000/svg">
<g clip-path="url(#clip0)">
<path d="M21.434 16.2264L18.6991 13.4915C17.9451 12.7375 16.7182 12.7375 15.9642 13.4915L14.7211 14.7346C14.1498 15.3059 13.2203 15.3057 12.6493 14.7349L7.26103 9.34197C6.68847 8.76941 6.68839 7.8427 7.26103 7.27006C7.46127 7.06983 8.03623 6.49486 8.50417 6.02693C9.25487 5.27627 9.26536 4.05316 8.50344 3.29132L5.76924 0.565727C5.01522 -0.188246 3.78834 -0.188246 3.03634 0.563751C2.47362 1.12157 2.29212 1.30152 2.03981 1.55165C-0.679262 4.27067 -0.679263 8.69486 2.03968 11.4138L10.5772 19.9558C13.3027 22.6813 17.7138 22.6815 20.4395 19.9558L21.434 18.9613C22.1881 18.2073 22.1881 16.9804 21.434 16.2264ZM3.94599 1.47735C4.19731 1.22603 4.6062 1.22599 4.85835 1.47804L7.59254 4.20364C7.84446 4.45556 7.84446 4.86329 7.59254 5.11526L7.13668 5.57107L3.4925 1.92689L3.94599 1.47735ZM11.489 19.0443L2.95143 10.5022C0.847764 8.39855 0.732135 5.09532 2.59582 2.85351L6.22944 6.48713C5.27467 7.56947 5.31446 9.21874 6.34919 10.2535L11.7373 15.6461C11.7374 15.6461 11.7374 15.6462 11.7375 15.6463C12.7711 16.6799 14.4203 16.7223 15.504 15.7662L19.1377 19.3999C16.903 21.2604 13.6072 21.1625 11.489 19.0443ZM20.5225 18.0497L20.0666 18.5055L16.4201 14.8589L16.8758 14.4031C17.1272 14.1518 17.5361 14.1518 17.7875 14.4031L20.5224 17.1381C20.7738 17.3894 20.7738 17.7984 20.5225 18.0497Z" fill="black"/>
</g>
<defs>
<clipPath id="clip0">
<rect width="22" height="22" fill="white"/>
</clipPath>
</defs>
</svg>
