<svg width="25" height="25" viewBox="0 0 25 25" fill="none" xmlns="http://www.w3.org/2000/svg">
<path d="M23.0155 18.6619C22.3667 19.8212 21.6607 20.0355 20.2223 20.1193C18.7855 20.2195 15.1721 20.2669 12.0416 20.2729C8.90509 20.2789 5.28998 20.2453 3.85435 20.152C2.41874 20.0723 1.71034 19.8621 1.05104 18.7039C0.378345 17.5487 0.0295751 15.5573 0.0228819 12.0503C0.0228762 12.0473 0.0228733 12.0458 0.0228733 12.0458C0.0228676 12.0428 0.0228647 12.0413 0.0228647 12.0413L0.022859 12.0383C0.0161946 8.54637 0.357332 6.53869 1.02563 5.39286C1.68051 4.23367 2.3866 4.02226 3.82186 3.92201C5.25867 3.83527 8.8736 3.77898 12.0101 3.77299C15.1406 3.76702 18.7542 3.80951 20.1928 3.88938C21.6315 3.98402 22.3384 4.19273 22.9916 5.34943C23.6703 6.49268 24.0161 8.49905 24.0228 11.991C24.0228 11.991 24.0228 11.9955 24.0228 11.9985C24.0228 11.9985 24.0228 12.0015 24.0228 12.003C24.0295 15.5115 23.6913 17.5042 23.0155 18.6619ZM9.01427 7.52865L9.03145 16.5286L16.5228 12.0143L9.01427 7.52865Z" fill="#00A189"/>
</svg>
